name Walk7.mot
datacolumns 19
datarows 25
range 1.21500000 1.33500000
endheader

                time	   L_ground_force_vx	   L_ground_force_vy	   L_ground_force_vz	   L_ground_force_px	   L_ground_force_py	   L_ground_force_pz	   R_ground_force_vx	   R_ground_force_vy	   R_ground_force_vz	   R_ground_force_px	   R_ground_force_py	   R_ground_force_pz	   L_ground_torque_x	   L_ground_torque_y	   L_ground_torque_z	   R_ground_torque_x	   R_ground_torque_y	   R_ground_torque_z	
          1.21500000	        -15.63934840	        204.78742082	        -33.37008410	         -0.05649440	          0.00000000	         -0.00010360	         -0.00000000	          0.00000000	          0.00000000	          0.00000000	          0.00000000	          0.00000000	          0.00000000	          0.28662737	          0.00000000	          0.00000000	          0.00000000	          0.00000000	
          1.22000000	        -24.71030164	        272.51947390	        -42.99051967	         -0.11825327	          0.00000000	          0.00276575	         -0.00000000	          0.00000000	          0.00000000	          0.00000000	          0.00000000	          0.00000000	          0.00000000	          0.37348052	          0.00000000	          0.00000000	          0.00000000	          0.00000000	
          1.22500000	        -35.62462643	        342.86678448	        -52.58055135	         -0.17319795	          0.00000000	          0.00520872	         -0.00000000	          0.00000000	          0.00000000	          0.00000000	          0.00000000	          0.00000000	          0.00000000	          0.47163637	          0.00000000	          0.00000000	          0.00000000	          0.00000000	
          1.23000000	        -48.16062117	        410.52489795	        -61.07664124	         -0.21926889	          0.00000000	          0.00713167	         -0.00000000	          0.00000000	          0.00000000	          0.00000000	          0.00000000	          0.00000000	          0.00000000	          0.57457438	          0.00000000	          0.00000000	          0.00000000	          0.00000000	
          1.23500000	        -61.84614055	        471.22763515	        -67.33031969	         -0.25583488	          0.00000000	          0.00847731	         -0.00000000	          0.00000000	          0.00000000	          0.00000000	          0.00000000	          0.00000000	          0.00000000	          0.67637607	          0.00000000	          0.00000000	          0.00000000	          0.00000000	
          1.24000000	        -75.95263051	        522.91396238	        -70.48868445	         -0.28323858	          0.00000000	          0.00922229	         -0.00000000	          0.00000001	          0.00000000	          0.00000000	          0.00000000	          0.00000000	          0.00000000	          0.77181227	          0.00000000	          0.00000000	          0.00000000	          0.00000000	
          1.24500000	        -89.63060529	        565.10344285	        -70.21844110	         -0.30241630	          0.00000000	          0.00937773	         -0.00000000	          0.00000001	          0.00000000	          0.00000000	          0.00000000	          0.00000000	          0.00000000	          0.85498854	          0.00000000	          0.00000000	          0.00000000	          0.00000000	
          1.25000000	       -102.12075438	        598.43579515	        -66.69945818	         -0.31460388	          0.00000000	          0.00898187	         -0.00000000	          0.00000001	          0.00000000	          0.00000000	          0.00000000	          0.00000000	          0.00000000	          0.92037580	          0.00000000	          0.00000000	          0.00000000	          0.00000000	
          1.25500000	       -112.96054205	        624.53158591	        -60.47125691	         -0.32112586	          0.00000000	          0.00808999	         -0.00000000	          0.00000001	          0.00000000	          0.00000000	          0.00000000	          0.00000000	          0.00000000	          0.96476426	          0.00000000	          0.00000000	          0.00000000	          0.00000000	
          1.26000000	       -122.11212063	        645.74696390	        -52.23305153	         -0.32325456	          0.00000000	          0.00676513	         -0.00000000	          0.00000001	          0.00000000	          0.00000000	          0.00000000	          0.00000000	          0.00000000	          0.98806014	          0.00000000	          0.00000000	          0.00000000	          0.00000000	
          1.26500000	       -129.92548867	        664.77632353	        -42.70024119	         -0.32212821	          0.00000000	          0.00507422	         -0.00000000	          0.00000000	          0.00000000	         -0.00000000	          0.00000000	         -0.00000000	          0.00000000	          0.99293125	          0.00000000	          0.00000000	          0.00000000	          0.00000000	
          1.27000000	       -136.92465534	        684.18985745	        -32.55351586	         -0.31871757	          0.00000000	          0.00309025	         -0.00000000	          0.00000000	          0.00000000	         -0.00000000	          0.00000000	         -0.00000000	          0.00000000	          0.98367212	          0.00000000	          0.00000000	          0.00000000	          0.00000000	
          1.27500000	       -143.55042069	        706.04788279	        -22.43307697	         -0.31382520	          0.00000000	          0.00089577	         -0.00000000	         -0.00000000	         -0.00000000	         -0.00000000	          0.00000000	         -0.00000000	          0.00000000	          0.96518925	          0.00000000	          0.00000000	          0.00000000	          0.00000000	
          1.28000000	       -150.01133119	        731.66900558	        -12.92843785	         -0.30809875	          0.00000000	         -0.00141439	          0.00000000	         -0.00000001	         -0.00000000	         -0.00000000	          0.00000000	         -0.00000000	          0.00000000	          0.94342590	          0.00000000	          0.00000000	          0.00000000	          0.00000000	
          1.28500000	       -156.27970307	        761.54791093	         -4.54748252	         -0.30204684	          0.00000000	         -0.00373923	          0.00000000	         -0.00000002	         -0.00000000	         -0.00000000	          0.00000000	         -0.00000000	          0.00000000	          0.92602765	          0.00000000	          0.00000000	         -0.00000000	          0.00000000	
          1.29000000	       -162.17876759	        795.40919021	          2.33482162	         -0.29605158	          0.00000000	         -0.00598380	          0.00000000	         -0.00000003	         -0.00000000	         -0.00000000	          0.00000000	         -0.00000000	          0.00000000	          0.92143582	          0.00000000	          0.00000000	         -0.00000000	          0.00000000	
          1.29500000	       -167.49641055	        832.38621693	          7.52811734	         -0.29037821	          0.00000000	         -0.00807242	          0.00000000	         -0.00000005	         -0.00000000	         -0.00000000	          0.00000000	         -0.00000000	          0.00000000	          0.93741439	          0.00000000	          0.00000000	         -0.00000000	          0.00000000	
          1.30000000	       -172.06631914	        871.27506353	         11.04064366	         -0.28518845	          0.00000000	         -0.00995624	          0.00000001	         -0.00000007	         -0.00000000	         -0.00000000	          0.00000000	         -0.00000000	          0.00000000	          0.97891476	          0.00000000	          0.00000000	         -0.00000000	          0.00000000	
          1.30500000	       -175.79177368	        910.77391517	         13.04225785	         -0.28055913	          0.00000000	         -0.01161407	          0.00000001	         -0.00000009	         -0.00000001	         -0.00000000	          0.00000000	         -0.00000000	          0.00000000	          1.04687183	          0.00000000	          0.00000000	         -0.00000000	          0.00000000	
          1.31000000	       -178.63285989	        949.65307873	         13.80393483	         -0.27650378	          0.00000000	         -0.01304884	          0.00000001	         -0.00000011	         -0.00000001	         -0.00000000	          0.00000000	         -0.00000000	          0.00000000	          1.13821397	          0.00000000	          0.00000000	         -0.00000000	          0.00000000	
          1.31500000	       -180.59008775	        986.84034791	         13.64599256	         -0.27299273	          0.00000000	         -0.01428026	          0.00000001	         -0.00000013	         -0.00000001	         -0.00000000	          0.00000000	         -0.00000000	          0.00000000	          1.24769489	          0.00000000	          0.00000000	         -0.00000000	          0.00000000	
          1.32000000	       -181.69324776	       1021.43657324	         12.90602587	         -0.26996912	          0.00000000	         -0.01533772	          0.00000002	         -0.00000015	         -0.00000001	         -0.00000000	          0.00000000	         -0.00000000	          0.00000000	          1.36914627	          0.00000000	          0.00000000	         -0.00000000	          0.00000000	
          1.32500000	       -181.99136225	       1052.72270202	         11.91653041	         -0.26736127	          0.00000000	         -0.01625661	          0.00000002	         -0.00000015	         -0.00000001	         -0.00000000	          0.00000000	         -0.00000000	          0.00000000	          1.49607634	          0.00000000	          0.00000000	         -0.00000000	          0.00000000	
          1.33000000	       -181.53886578	       1080.18816436	         10.98236848	         -0.26509262	          0.00000000	         -0.01707487	          0.00000002	         -0.00000014	         -0.00000001	         -0.00000000	          0.00000000	         -0.00000000	          0.00000000	          1.62162345	          0.00000000	          0.00000000	         -0.00000000	          0.00000000	
          1.33500000	       -180.38148220	       1103.55248328	         10.35658003	         -0.26308982	          0.00000000	         -0.01782917	          0.00000002	         -0.00000011	         -0.00000001	          0.00000000	          0.00000000	          0.00000000	          0.00000000	          1.73942416	          0.00000000	          0.00000000	         -0.00000000	          0.00000000	
